# xmcd CD database file
#
# Track frame offsets:
#	150
#	3144
#	26863
#	56801
#	80338
#	100844
#	129244
#	147441
#	177276
#	180406
#	208739
#	222262
#	249982
#
# Disc length: 3377 seconds
#
# Revision: 0
# Processed by: cddbd v1.5.2PL0 Copyright (c) Steve Scherf et al.
# Submitted via: CDex 1.70beta2
#
DISCID=ae0d2f0d
DTITLE=Roberto Fonseca - Akokan
DYEAR=1900
DGENRE=Jazz
TTITLE0=Fragmento De Misa
TTITLE1=Lo Que Me Hace Vivir
TTITLE2=Drume Negrita
TTITLE3=Siete Potencias (Bu Kantu)
TTITLE4=Bulgarian
TTITLE5=Cuando uno Crece
TTITLE6=Lento Y Despacio
TTITLE7=Como En Las Películas
TTITLE8=Pequeños Viajes
TTITLE9=La Flor Que No Cuidé
TTITLE10=El Ritmo De Tus Hombros
TTITLE11=Everyone Deseves A Second Chance
TTITLE12=Cuando Una Madre Llama Su Hijo
EXTD=
EXTT0=
EXTT1=
EXTT2=
EXTT3=
EXTT4=
EXTT5=
EXTT6=
EXTT7=
EXTT8=
EXTT9=
EXTT10=
EXTT11=
EXTT12=
PLAYORDER=
